<?xml version="1.0" encoding="UTF-8" standalone="no"?>
<svg
   xmlns:dc="http://purl.org/dc/elements/1.1/"
   xmlns:cc="http://creativecommons.org/ns#"
   xmlns:rdf="http://www.w3.org/1999/02/22-rdf-syntax-ns#"
   xmlns:svg="http://www.w3.org/2000/svg"
   xmlns="http://www.w3.org/2000/svg"
   xmlns:sodipodi="http://sodipodi.sourceforge.net/DTD/sodipodi-0.dtd"
   xmlns:inkscape="http://www.inkscape.org/namespaces/inkscape"
   enable-background="new 0 0 56.693 56.693"
   height="64"
   id="Layer_1"
   version="1.1"
   viewBox="0 0 64 64"
   width="64"
   x="0px"
   xml:space="preserve"
   y="0px"
   inkscape:version="0.48.4 r9939"
   sodipodi:docname="facebook.svg"><metadata
     id="metadata3078"><rdf:RDF><cc:Work
         rdf:about=""><dc:format>image/svg+xml</dc:format><dc:type
           rdf:resource="http://purl.org/dc/dcmitype/StillImage" /><dc:title></dc:title></cc:Work></rdf:RDF></metadata><defs
     id="defs3076" /><sodipodi:namedview
     pagecolor="#ffffff"
     bordercolor="#666666"
     borderopacity="1"
     objecttolerance="10"
     gridtolerance="10"
     guidetolerance="10"
     inkscape:pageopacity="0"
     inkscape:pageshadow="2"
     inkscape:window-width="1231"
     inkscape:window-height="1000"
     id="namedview3074"
     showgrid="false"
     inkscape:zoom="4.1627714"
     inkscape:cx="28.3465"
     inkscape:cy="57.17345"
     inkscape:window-x="49"
     inkscape:window-y="24"
     inkscape:window-maximized="1"
     inkscape:current-layer="Layer_1" /><path
     d="M 31.999999,0 C 14.326903,0 0,14.330084 0,32.0013 0,49.675116 14.326903,64 31.999999,64 49.673094,64 64,49.675116 64,32.0013 64,14.330084 49.671794,0 31.999999,0 z m 8.468792,31.867447 h -5.541035 c 0,8.855101 0,19.762185 0,19.762185 h -8.212792 c 0,0 0,-10.795324 0,-19.762185 H 22.80869 v -6.977259 h 3.906274 V 20.36907 c 0,-3.235866 1.536,-8.287199 8.289461,-8.287199 l 6.081625,0.02339 v 6.777129 c 0,0 -3.698355,0 -4.415675,0 -0.721218,0 -1.74132,0.359973 -1.74132,1.898636 v 4.110461 h 6.260954 l -0.721218,6.975961 z"
     id="path3072"
     inkscape:connector-curvature="0"
     style="fill:#ffffff"
     inkscape:export-filename="/home/dev/workspace/resto/img/social/facebook_white.png"
     inkscape:export-xdpi="90"
     inkscape:export-ydpi="90" /></svg>