<?xml version="1.0" encoding="UTF-8" standalone="no"?>
<svg
   xmlns:dc="http://purl.org/dc/elements/1.1/"
   xmlns:cc="http://creativecommons.org/ns#"
   xmlns:rdf="http://www.w3.org/1999/02/22-rdf-syntax-ns#"
   xmlns:svg="http://www.w3.org/2000/svg"
   xmlns="http://www.w3.org/2000/svg"
   xmlns:sodipodi="http://sodipodi.sourceforge.net/DTD/sodipodi-0.dtd"
   xmlns:inkscape="http://www.inkscape.org/namespaces/inkscape"
   enable-background="new 0 0 56.693 56.693"
   height="64"
   id="Layer_1"
   version="1.1"
   viewBox="0 0 64 64"
   width="64"
   x="0px"
   xml:space="preserve"
   y="0px"
   inkscape:version="0.48.4 r9939"
   sodipodi:docname="twitter.svg"
   inkscape:export-filename="/home/dev/Bureau/twitter.png"
   inkscape:export-xdpi="90"
   inkscape:export-ydpi="90"><metadata
     id="metadata9"><rdf:RDF><cc:Work
         rdf:about=""><dc:format>image/svg+xml</dc:format><dc:type
           rdf:resource="http://purl.org/dc/dcmitype/StillImage" /><dc:title></dc:title></cc:Work></rdf:RDF></metadata><defs
     id="defs7" /><sodipodi:namedview
     pagecolor="#ffffff"
     bordercolor="#666666"
     borderopacity="1"
     objecttolerance="10"
     gridtolerance="10"
     guidetolerance="10"
     inkscape:pageopacity="0"
     inkscape:pageshadow="2"
     inkscape:window-width="1115"
     inkscape:window-height="822"
     id="namedview5"
     showgrid="false"
     inkscape:zoom="4.1627714"
     inkscape:cx="36.117469"
     inkscape:cy="61.763835"
     inkscape:window-x="49"
     inkscape:window-y="24"
     inkscape:window-maximized="0"
     inkscape:current-layer="Layer_1" /><path
     d="M 32.001288,0 C 14.327485,0 0,14.330093 0,32.001288 0,49.675106 14.327485,64 32.001288,64 49.675106,64 63.999995,49.675106 63.999995,32.001288 63.999995,14.330093 49.673817,0 32.001288,0 z m 16.119601,25.549052 c 0.01694,0.345697 0.02332,0.69266 0.02332,1.04357 0,10.657529 -8.111753,22.944692 -22.944775,22.944692 -4.553611,0 -8.794017,-1.334592 -12.362557,-3.621809 0.631571,0.07416 1.272248,0.111806 1.923341,0.111806 3.779064,0 7.256638,-1.289186 10.015575,-3.451607 -3.528273,-0.06622 -6.505532,-2.398983 -7.532165,-5.602351 0.491232,0.0961 0.996753,0.144236 1.516589,0.144236 0.735512,0 1.447685,-0.09613 2.124741,-0.281983 -3.690716,-0.740759 -6.470442,-4.002604 -6.470442,-7.906438 0,-0.03501 0,-0.06894 4.93e-4,-0.103929 1.086416,0.604304 2.330078,0.966871 3.653019,1.009754 -2.165047,-1.449006 -3.588041,-3.914231 -3.588041,-6.713461 0,-1.477568 0.397658,-2.864195 1.091621,-4.054584 3.977886,4.878513 9.920723,8.08968 16.623779,8.424953 -0.137754,-0.58868 -0.209237,-1.20596 -0.209237,-1.837518 0,-4.452274 3.610142,-8.063715 8.064971,-8.063715 2.319687,0 4.414554,0.97986 5.885655,2.545821 1.837536,-0.359971 3.563378,-1.033132 5.121478,-1.957118 -0.604293,1.884349 -1.88173,3.464593 -3.547741,4.461329 1.633546,-0.194915 3.187805,-0.628973 4.632895,-1.269647 -1.078646,1.620524 -2.44705,3.04094 -4.023384,4.178031 z"
     id="path3"
     style="fill:#ffffff"
     inkscape:connector-curvature="0"
     inkscape:export-filename="/home/dev/workspace/resto/img/social/twitter_white.png"
     inkscape:export-xdpi="90"
     inkscape:export-ydpi="90" /></svg>